<svg xmlns="http://www.w3.org/2000/svg" xmlns:xlink="http://www.w3.org/1999/xlink" contentStyleType="text/css" height="356px" preserveAspectRatio="none" style="width:960px;height:356px;background:#FFFFFF;" version="1.1" viewBox="0 0 960 356" width="960px" zoomAndPan="magnify"><defs/><g><line style="stroke:#181818;stroke-width:0.5;stroke-dasharray:5.0,5.0;" x1="32" x2="32" y1="81.2969" y2="276.0938"/><line style="stroke:#181818;stroke-width:0.5;stroke-dasharray:5.0,5.0;" x1="266.583" x2="266.583" y1="81.2969" y2="276.0938"/><line style="stroke:#181818;stroke-width:0.5;stroke-dasharray:5.0,5.0;" x1="643.6196" x2="643.6196" y1="81.2969" y2="276.0938"/><line style="stroke:#181818;stroke-width:0.5;stroke-dasharray:5.0,5.0;" x1="909.6313" x2="909.6313" y1="81.2969" y2="276.0938"/><text fill="#000000" font-family="sans-serif" font-size="14" lengthAdjust="spacing" textLength="49.1436" x="5" y="77.9951">Cliente</text><ellipse cx="32.5718" cy="13.5" fill="#E2E2F0" rx="8" ry="8" style="stroke:#181818;stroke-width:0.5;"/><path d="M32.5718,21.5 L32.5718,48.5 M19.5718,29.5 L45.5718,29.5 M32.5718,48.5 L19.5718,63.5 M32.5718,48.5 L45.5718,63.5 " fill="none" style="stroke:#181818;stroke-width:0.5;"/><text fill="#000000" font-family="sans-serif" font-size="14" lengthAdjust="spacing" textLength="49.1436" x="5" y="288.0889">Cliente</text><ellipse cx="32.5718" cy="299.8906" fill="#E2E2F0" rx="8" ry="8" style="stroke:#181818;stroke-width:0.5;"/><path d="M32.5718,307.8906 L32.5718,334.8906 M19.5718,315.8906 L45.5718,315.8906 M32.5718,334.8906 L19.5718,349.8906 M32.5718,334.8906 L45.5718,349.8906 " fill="none" style="stroke:#181818;stroke-width:0.5;"/><text fill="#000000" font-family="sans-serif" font-size="14" lengthAdjust="spacing" textLength="76.624" x="225.583" y="77.9951">Navegador</text><path d="M246.395,37 L246.395,61 M246.395,49 L263.395,49 " fill="none" style="stroke:#181818;stroke-width:0.5;"/><ellipse cx="275.395" cy="49" fill="#E2E2F0" rx="12" ry="12" style="stroke:#181818;stroke-width:0.5;"/><text fill="#000000" font-family="sans-serif" font-size="14" lengthAdjust="spacing" textLength="76.624" x="225.583" y="288.0889">Navegador</text><path d="M246.395,295.3906 L246.395,319.3906 M246.395,307.3906 L263.395,307.3906 " fill="none" style="stroke:#181818;stroke-width:0.5;"/><ellipse cx="275.395" cy="307.3906" fill="#E2E2F0" rx="12" ry="12" style="stroke:#181818;stroke-width:0.5;"/><text fill="#000000" font-family="sans-serif" font-size="14" lengthAdjust="spacing" textLength="58.6387" x="611.6196" y="77.9951">Servidor</text><ellipse cx="643.939" cy="49" fill="#E2E2F0" rx="12" ry="12" style="stroke:#181818;stroke-width:0.5;"/><polygon fill="#181818" points="639.939,37,645.939,32,643.939,37,645.939,42,639.939,37" style="stroke:#181818;stroke-width:1.0;"/><text fill="#000000" font-family="sans-serif" font-size="14" lengthAdjust="spacing" textLength="58.6387" x="611.6196" y="288.0889">Servidor</text><ellipse cx="643.939" cy="307.3906" fill="#E2E2F0" rx="12" ry="12" style="stroke:#181818;stroke-width:0.5;"/><polygon fill="#181818" points="639.939,295.3906,645.939,290.3906,643.939,295.3906,645.939,300.3906,639.939,295.3906" style="stroke:#181818;stroke-width:1.0;"/><text fill="#000000" font-family="sans-serif" font-size="14" lengthAdjust="spacing" textLength="94.1924" x="859.6313" y="77.9951">BaseDeDatos</text><path d="M891.7275,29 C891.7275,19 909.7275,19 909.7275,19 C909.7275,19 927.7275,19 927.7275,29 L927.7275,55 C927.7275,65 909.7275,65 909.7275,65 C909.7275,65 891.7275,65 891.7275,55 L891.7275,29 " fill="#E2E2F0" style="stroke:#181818;stroke-width:1.5;"/><path d="M891.7275,29 C891.7275,39 909.7275,39 909.7275,39 C909.7275,39 927.7275,39 927.7275,29 " fill="none" style="stroke:#181818;stroke-width:1.5;"/><text fill="#000000" font-family="sans-serif" font-size="14" lengthAdjust="spacing" textLength="94.1924" x="859.6313" y="288.0889">BaseDeDatos</text><path d="M891.7275,301.3906 C891.7275,291.3906 909.7275,291.3906 909.7275,291.3906 C909.7275,291.3906 927.7275,291.3906 927.7275,301.3906 L927.7275,327.3906 C927.7275,337.3906 909.7275,337.3906 909.7275,337.3906 C909.7275,337.3906 891.7275,337.3906 891.7275,327.3906 L891.7275,301.3906 " fill="#E2E2F0" style="stroke:#181818;stroke-width:1.5;"/><path d="M891.7275,301.3906 C891.7275,311.3906 909.7275,311.3906 909.7275,311.3906 C909.7275,311.3906 927.7275,311.3906 927.7275,301.3906 " fill="none" style="stroke:#181818;stroke-width:1.5;"/><polygon fill="#181818" points="254.895,108.4297,264.895,112.4297,254.895,116.4297,258.895,112.4297" style="stroke:#181818;stroke-width:1.0;"/><line style="stroke:#181818;stroke-width:1.0;" x1="32.5718" x2="260.895" y1="112.4297" y2="112.4297"/><text fill="#000000" font-family="sans-serif" font-size="13" lengthAdjust="spacing" textLength="154.7305" x="39.5718" y="107.3638">Buscar "laptop gaming"</text><polygon fill="#181818" points="631.939,137.5625,641.939,141.5625,631.939,145.5625,635.939,141.5625" style="stroke:#181818;stroke-width:1.0;"/><line style="stroke:#181818;stroke-width:1.0;" x1="266.895" x2="637.939" y1="141.5625" y2="141.5625"/><text fill="#000000" font-family="sans-serif" font-size="13" lengthAdjust="spacing" textLength="353.0439" x="273.895" y="136.4966">Solicitud HTTP GET /buscar?producto=laptop+gaming</text><polygon fill="#181818" points="897.7275,166.6953,907.7275,170.6953,897.7275,174.6953,901.7275,170.6953" style="stroke:#181818;stroke-width:1.0;"/><line style="stroke:#181818;stroke-width:1.0;" x1="643.939" x2="903.7275" y1="170.6953" y2="170.6953"/><text fill="#000000" font-family="sans-serif" font-size="13" lengthAdjust="spacing" textLength="241.7886" x="650.939" y="165.6294">Consultar productos "laptop gaming"</text><polygon fill="#181818" points="654.939,195.8281,644.939,199.8281,654.939,203.8281,650.939,199.8281" style="stroke:#181818;stroke-width:1.0;"/><line style="stroke:#181818;stroke-width:1.0;stroke-dasharray:2.0,2.0;" x1="648.939" x2="908.7275" y1="199.8281" y2="199.8281"/><text fill="#000000" font-family="sans-serif" font-size="13" lengthAdjust="spacing" textLength="175.8936" x="660.939" y="194.7622">Resultados de la b&#250;squeda</text><polygon fill="#181818" points="277.895,224.9609,267.895,228.9609,277.895,232.9609,273.895,228.9609" style="stroke:#181818;stroke-width:1.0;"/><line style="stroke:#181818;stroke-width:1.0;" x1="271.895" x2="642.939" y1="228.9609" y2="228.9609"/><text fill="#000000" font-family="sans-serif" font-size="13" lengthAdjust="spacing" textLength="282.896" x="283.895" y="223.895">Respuesta HTTP 200 con lista de productos</text><polygon fill="#181818" points="43.5718,254.0938,33.5718,258.0938,43.5718,262.0938,39.5718,258.0938" style="stroke:#181818;stroke-width:1.0;"/><line style="stroke:#181818;stroke-width:1.0;" x1="37.5718" x2="265.895" y1="258.0938" y2="258.0938"/><text fill="#000000" font-family="sans-serif" font-size="13" lengthAdjust="spacing" textLength="210.3232" x="49.5718" y="253.0278">Mostrar resultados de b&#250;squeda</text><!--SRC=[PK_BIiGm5DtdAmwpbS71PK659A8RWvZ-m6qJIY0cDOy1VysjFsRQw82ukOlplZINc22yiw5OK8PWKwp1KFg0ehDTo3I-uOhDCPGKFRHDP_U3QcQeq4JPWhSZhQGIyyP8pfZ0yGvg0AzvfeI3fxN45GkzkR0ScDfeFK17xsPNgi7JEBxWyM74zRHRxjSKJMqJRxlrgbkPtfoI3n0nvEfB2_zLvdyrakFOYrxjBZPDP2myOVhwpE_L6kg9QfUirUP2VSlDwOJsDxpRe6QwrFJrOi1pp2Mr0UbF-2Nv6m00]--></g></svg>